Simulation
nRows=31
nColumns=15
endheader
time  TH_x TH_y TH_z SC_y  SC_z  SC_x  AC_y  AC_z  AC_x  GH_y  GH_z  GH_yy  EL_x  PS_y
0.0  0.000000  0.000000  0.000000  -29.69818503551944  0.15190428488351  -4.3456108692117965  52.57164459343036  10.249714903245243  -4.727307612390326  80.78123857410664  3.3154347146926035  -53.04877446118097  22.809442697888  0.000000
0.03099999999999998  0.000000  0.000000  0.000000  -29.691361338380464  0.034561309916868864  -3.307531417940267  52.534290019408154  9.567048333733732  -5.578369355030067  79.70169262227505  3.44684511927196  -51.977014144061016  22.769231575367005  0.000000
0.06199999999999996  0.000000  0.000000  0.000000  -29.661596342664005  -0.0922500041935802  -2.3053334546201265  52.51115217945199  8.882178346456188  -6.40284115967088  78.97877511418434  3.6038277036521613  -51.26731528873773  22.72983379648384  0.000000
0.09299999999999994  0.000000  0.000000  0.000000  -29.628210305653518  -0.22395832045302488  -1.3466324209336507  52.49694785090319  8.209419453250208  -7.192226100914621  78.31620670623336  3.797689881766006  -50.64496749665348  22.672922800541357  0.000000
0.12399999999999992  0.000000  0.000000  0.000000  -29.596482856647736  -0.3537885994084535  -0.43714431641958096  52.488650309064084  7.560126283871083  -7.939565061763146  77.48610535304066  4.0385540321734  -49.90082945261864  22.587093222942425  0.000000
0.1549999999999999  0.000000  0.000000  0.000000  -29.57812999100033  -0.47760523104373864  0.4188266843372079  52.485052601601026  6.9436289238131765  -8.639478690930712  76.30208204161467  4.338990156524064  -48.869737954357944  22.4670884110951  0.000000
0.1859999999999999  0.000000  0.000000  0.000000  -29.577308758168588  -0.5910511906631519  1.2185211921983572  52.48495259607866  6.366739609546082  -9.287209372084988  74.68838405507844  4.708793364226232  -47.494276736599595  22.313759501636774  0.000000
0.21699999999999986  0.000000  0.000000  0.000000  -29.597119408955045  -0.691168153333357  1.9601981097071175  52.48941772800024  5.834169322635585  -9.878952125428022  72.64643550252231  5.156450246972856  -45.78968007547314  22.133143925927403  0.000000
0.24799999999999983  0.000000  0.000000  0.000000  -29.636977462876725  -0.7758486307649357  2.6431439312692895  52.49935450818204  5.348687477569342  -10.411494592046004  70.25258714773042  5.688124372433286  -43.842287467401924  21.934276213649763  0.000000
0.2789999999999998  0.000000  0.000000  0.000000  -29.693871180585116  -0.8441335177196546  3.2673071782642222  52.51702626488176  4.911371115264711  -10.882304855178537  67.61064752627357  6.307554323980176  -41.76004002875946  21.728746218801753  0.000000
0.3099999999999998  0.000000  0.000000  0.000000  -29.76338448171286  -0.8961432122950261  3.8331728013078705  52.54481800710222  4.5218320141204735  -11.28924174985564  64.82636776999875  7.016206480663152  -39.64877861107525  21.530475243436776  0.000000
0.34099999999999975  0.000000  0.000000  0.000000  -29.840662544924346  -0.9329552161018567  4.3415635538429465  52.58588065804688  4.178076938166824  -11.63040707410975  61.9834767458285  7.813908059533108  -37.58829158006934  21.355048083571784  0.000000
0.3719999999999998  0.000000  0.000000  0.000000  -29.921601029050628  -0.956191413468922  4.7936171191863055  52.64358661100785  3.876746410503146  -11.904122145888945  59.1378565604025  8.699641253207988  -35.627051990725896  21.218808020396906  0.000000
0.40299999999999975  0.000000  0.000000  0.000000  -30.002632773319046  -0.9671959707433823  5.190960994489104  52.72120702934149  3.6133192704117962  -12.109064512025736  56.32072202234868  9.67227205531856  -33.78477399925773  21.135468816798095  0.000000
0.4339999999999997  0.000000  0.000000  0.000000  -30.080476108220065  -0.9665014861014104  5.5360255657752955  52.8209706757719  3.38296367154454  -12.24494546337161  53.548757267977294  10.730813344767316  -32.061334924270774  21.112422493799038  0.000000
0.4649999999999997  0.000000  0.000000  0.000000  -30.151672752351303  -0.953109444223777  5.832190756869931  52.94339997359554  3.1810991877256436  -12.313373765745748  50.83643244361818  11.87450299112475  -30.44893609881116  21.147068976290424  0.000000
0.49599999999999966  0.000000  0.000000  0.000000  -30.212944039878398  -0.9245926110362029  6.084244066426495  53.08664131614377  3.004621755784331  -12.31877169798619  48.20260157770591  13.102492784447302  -28.939461905405523  21.226466120913503  0.000000
0.5269999999999997  0.000000  0.000000  0.000000  -30.26227577361534  -0.877568573421068  6.2990344128626  53.245530351206156  2.852641966936039  -12.268655419520073  45.671691463777655  14.413452203508802  -27.52887100287448  21.330769337370686  0.000000
0.5579999999999996  0.000000  0.000000  0.000000  -30.300043016685247  -0.8085309389502887  6.484996508071276  53.41243786349185  2.7266293246095916  -12.173395250960011  43.27283769795584  15.805380509608073  -26.22065356115497  21.438551110373915  0.000000
0.5889999999999996  0.000000  0.000000  0.000000  -30.32917703178  -0.715305878606394  6.652394200581332  53.57885170724858  2.629300687802144  -12.045928317121957  41.03560301819584  17.274919640318753  -25.024988009692372  21.531998323758142  0.000000
0.6199999999999996  0.000000  0.000000  0.000000  -30.353842599038874  -0.5976901008202817  6.811871287167563  53.73744334849766  2.5640206803432193  -11.899679606379083  38.9839644146597  18.816997327022257  -23.954234312681084  21.599660042830404  0.000000
0.6509999999999996  0.000000  0.000000  0.000000  -30.37759725652379  -0.45757558637117823  6.971259601134979  53.883799852370544  2.535112452896373  -11.744829395063384  37.12871736323681  20.424779257988522  -23.01548169443757  21.636702170857497  0.000000
0.6819999999999995  0.000000  0.000000  0.000000  -30.40201055430816  -0.2985253558188988  7.139545588015527  54.017700520328845  2.543430659139148  -11.589264983795971  35.464038835550255  22.090383890730624  -22.2059852859717  21.643391475255005  0.000000
0.7129999999999995  0.000000  0.000000  0.000000  -30.425690324274672  -0.12459688355825238  7.330537964356554  54.142698585750786  2.5844322178807873  -11.440754553328732  33.97292209590011  23.804721476423744  -21.516151302000498  21.6234144916413  0.000000
0.7439999999999996  0.000000  0.000000  0.000000  -30.44495251163565  0.05967525185380944  7.559041401673307  54.26452796153122  2.651763334836834  -11.306099371037456  32.635549955921434  25.55651666505799  -20.9351727721443  21.581740469127407  0.000000
0.7749999999999995  0.000000  0.000000  0.000000  -30.455267901432368  0.24938520895590915  7.838425324052872  54.389205447088315  2.73855427482688  -11.190759372585928  31.435138192610296  27.330832111151466  -20.454786151338762  21.522311116399546  0.000000
0.8059999999999995  0.000000  0.000000  0.000000  -30.452314129728904  0.44034837704906676  8.180369381598238  54.521421779026355  2.837430316835032  -11.099416851954665  30.359897337534925  29.108851335536027  -20.069903513190575  21.44667899619536  0.000000
0.8369999999999994  0.000000  0.000000  0.000000  -30.43356103600215  0.6298093353529265  8.594201240263258  54.66362056856187  2.9413263788011066  -11.035911591478525  29.401888973873948  30.869381741311173  -19.777315846478402  21.353866644259103  0.000000
0.8679999999999994  0.000000  0.000000  0.000000  -30.3987960401271  0.8165894768295321  9.085459596309654  54.81592027163956  3.044496142593796  -11.002477925439068  28.554286105411016  32.59113880345473  -19.57376624746266  21.24116427143421  0.000000
0.8989999999999994  0.000000  0.000000  0.000000  -30.35029159690063  1.0009435475662902  9.654853578219925  54.976573382878875  3.142653854374764  -10.998619542763482  27.809199239340906  34.25532759019164  -19.454372930937687  21.10531657051471  0.000000
0.9299999999999994  0.000000  0.000000  0.000000  -30.292736642546544  1.1846878746055827  10.299296682532695  55.142843953003165  3.231733165168859  -11.021317661802014  27.157262311201617  35.84782916000495  -19.41289916591334  20.94354668039103  0.000000
